# xmcd
#
# Track frame offsets: 
#        150
#        36089
#        59924
#        86914
#        112936
#        158091
#        187271
#        222748
#        236911
#
# Disc length: 3780 seconds
#
# Revision: 0
# Processed by: cddbd v1.5.2PL0 Copyright (c) Steve Scherf et al.
# Submitted via: ExactAudioCopy v0.95b4
#
DISCID=8b0ec209
DTITLE=Eric Clapton - 1985-04-22 - Wonderful Tonight - On Stage '85 - 
DTITLE=CD2
DYEAR=1985
DGENRE=Blues
TTITLE0=Something Is Wrong
TTITLE1=Lay Down Sally
TTITLE2=Badge
TTITLE3=Let it Rain
TTITLE4=Double Trouble
TTITLE5=Cocaine
TTITLE6=Layla
TTITLE7=Forever Man
TTITLE8=Further On Up The Road
EXTD=
EXTT0=
EXTT1=
EXTT2=
EXTT3=
EXTT4=
EXTT5=
EXTT6=
EXTT7=
EXTT8=
PLAYORDER=
